<?xml version="1.0" encoding="UTF-8" standalone="no"?>
<svg
   xmlns:dc="http://purl.org/dc/elements/1.1/"
   xmlns:cc="http://creativecommons.org/ns#"
   xmlns:rdf="http://www.w3.org/1999/02/22-rdf-syntax-ns#"
   xmlns:svg="http://www.w3.org/2000/svg"
   xmlns="http://www.w3.org/2000/svg"
   id="svg6977"
   version="1.1"
   viewBox="0 0 15 15"
   height="15mm"
   width="15mm">
  <defs
     id="defs6971" />
  <metadata
     id="metadata6974">
    <rdf:RDF>
      <cc:Work
         rdf:about="">
        <dc:format>image/svg+xml</dc:format>
        <dc:type
           rdf:resource="http://purl.org/dc/dcmitype/StillImage" />
        <dc:title></dc:title>
      </cc:Work>
    </rdf:RDF>
  </metadata>
  <g
     transform="translate(0,-282)"
     id="layer1">
    <g
       transform="matrix(0.35277777,0,0,-0.35277777,0.94027332,289.55145)"
       id="g162">
      <path
         id="path164"
         style="fill:#181818;fill-opacity:1;fill-rule:nonzero;stroke:none"
         d="M 0,0 C -0.029,0 -0.059,0.001 -0.089,0.003 -0.425,0.028 -0.724,0.176 -0.952,0.43 -1.163,0.662 -1.283,0.953 -1.29,1.248 v 0.011 l 0.002,0.025 c 0.003,0.051 0.016,0.24 0.058,0.779 0.485,6.199 3.963,11.766 9.306,14.892 2.894,1.694 6.191,2.589 9.535,2.589 0.304,0 0.612,-0.007 0.915,-0.022 l 0.686,-0.033 c 0.203,-0.027 0.421,-0.158 0.588,-0.342 0.231,-0.256 0.359,-0.602 0.348,-0.949 -0.011,-0.368 -0.135,-0.671 -0.348,-0.85 -0.117,-0.097 -0.246,-0.146 -0.383,-0.146 -0.029,0 -0.059,0.002 -0.089,0.007 l -0.653,0.042 c -0.356,0.022 -0.716,0.034 -1.071,0.034 -2.941,0 -5.841,-0.787 -8.387,-2.276 C 4.464,12.226 1.396,7.271 1.009,1.755 L 0.958,1.013 C 0.965,0.704 0.87,0.444 0.677,0.26 0.501,0.092 0.261,0 0,0 m 5.819,-0.074 c -0.031,0 -0.063,0.002 -0.095,0.004 L 5.665,-0.064 C 5.34,-0.04 5.014,0.125 4.774,0.39 4.563,0.624 4.437,0.912 4.42,1.201 l -0.001,0.014 0.005,0.07 c 0.007,0.103 0.02,0.326 0.056,0.765 0.345,4.184 2.704,7.942 6.308,10.052 1.964,1.149 4.2,1.756 6.469,1.756 0.207,0 0.414,-0.004 0.621,-0.014 l 0.737,-0.036 0.015,-0.003 c 0.18,-0.035 0.424,-0.193 0.595,-0.381 0.246,-0.272 0.381,-0.627 0.372,-0.975 l -0.001,-0.073 c -0.011,-0.31 -0.131,-0.572 -0.329,-0.727 -0.119,-0.091 -0.262,-0.14 -0.417,-0.14 -0.05,0 -0.1,0.005 -0.151,0.015 l -0.761,0.054 c -0.226,0.015 -0.456,0.023 -0.682,0.023 -1.868,0 -3.71,-0.501 -5.327,-1.448 C 8.84,8.346 6.888,5.123 6.706,1.533 L 6.673,0.849 C 6.695,0.546 6.635,0.338 6.477,0.176 6.32,0.015 6.087,-0.074 5.819,-0.074 m 5.719,-0.07 c -0.367,0.007 -0.666,0.136 -0.888,0.381 -0.424,0.469 -0.495,1.26 -0.472,1.613 0.142,2.246 1.385,4.263 3.322,5.398 1.032,0.604 2.207,0.923 3.398,0.923 0.124,0 0.249,-0.003 0.374,-0.011 C 17.655,8.14 18.37,7.917 18.758,7.488 18.988,7.234 19.081,6.946 19.043,6.607 19.021,6.422 18.936,6.273 18.781,6.153 18.432,5.88 17.898,5.859 17.743,5.859 17.656,5.859 17.574,5.864 17.498,5.874 17.297,5.901 17.094,5.915 16.893,5.915 16.096,5.915 15.337,5.708 14.641,5.3 13.146,4.426 12.28,2.743 12.435,1.014 12.455,0.775 12.284,0.387 12.045,0.13 11.882,-0.045 11.699,-0.145 11.544,-0.145 Z M 29.09,0.705 c 0.668,1.212 1.045,2.283 1.125,3.175 -0.425,0.076 -0.85,0.185 -1.272,0.328 0.456,-0.953 0.185,-2.39 -0.792,-4.161 -1.05,-1.906 -2.806,-4.01 -4.945,-5.924 -3.015,-2.698 -6.298,-4.578 -8.567,-4.906 -0.236,-0.034 -0.462,-0.051 -0.673,-0.051 -0.561,0 -1.034,0.119 -1.406,0.355 l -0.006,-0.006 c 0.092,-0.425 0.153,-0.849 0.183,-1.269 0.045,-0.001 0.087,-0.006 0.133,-0.006 0.236,0 0.49,0.02 0.754,0.058 2.591,0.375 6.345,2.527 9.798,5.618 2.452,2.195 4.465,4.605 5.668,6.789 m 8.641,7.359 C 36.675,4.076 32.021,-2.299 25.335,-8.283 c -6.066,-5.43 -12.291,-9.132 -16.437,-10.233 -0.824,-0.306 -1.702,-0.409 -2.586,-0.331 -0.217,0.015 -0.423,0.039 -0.612,0.082 -0.873,0.161 -1.741,0.493 -2.556,0.983 -1.007,0.605 -1.931,1.452 -2.691,2.5 l 11.517,6.585 c 0.134,-0.307 0.25,-0.616 0.35,-0.926 1.391,-1.464 5.992,0.47 10.326,4.347 4.347,3.892 6.76,8.294 5.423,9.82 l 0.006,0.006 c -0.298,0.134 -0.593,0.284 -0.882,0.453 l 7.843,10.701 c 0.955,-0.87 1.693,-1.88 2.183,-2.944 0.372,-0.811 0.6,-1.653 0.679,-2.484 C 38.019,9.671 37.959,8.93 37.735,8.079 37.734,8.074 37.732,8.069 37.731,8.064 M 25.272,6.333 26.307,5.576 c 0.144,-0.105 0.292,-0.204 0.44,-0.301 l 7.896,10.772 c -0.141,0.115 -0.285,0.229 -0.434,0.339 l -1.034,0.756 c -0.183,0.134 -0.393,0.203 -0.605,0.215 -0.373,0.021 -0.75,-0.14 -0.986,-0.462 L 25.024,7.924 C 24.79,7.602 24.75,7.193 24.884,6.844 24.959,6.646 25.09,6.467 25.272,6.333 M 11.75,-8.223 0.155,-14.852 c -0.097,0.151 -0.193,0.303 -0.283,0.461 l -0.638,1.112 c -0.112,0.197 -0.158,0.414 -0.146,0.625 0.018,0.373 0.221,0.73 0.567,0.929 l 9.641,5.529 c 0.346,0.198 0.756,0.192 1.089,0.02 0.188,-0.096 0.352,-0.246 0.465,-0.443 l 0.637,-1.111 c 0.093,-0.164 0.179,-0.328 0.263,-0.493" />
    </g>
  </g>
</svg>
