<?xml version="1.0" encoding="UTF-8" standalone="no"?>
<svg
   xmlns:dc="http://purl.org/dc/elements/1.1/"
   xmlns:cc="http://creativecommons.org/ns#"
   xmlns:rdf="http://www.w3.org/1999/02/22-rdf-syntax-ns#"
   xmlns:svg="http://www.w3.org/2000/svg"
   xmlns="http://www.w3.org/2000/svg"
   id="svg5839"
   version="1.1"
   viewBox="0 0 15 15"
   height="15mm"
   width="15mm">
  <defs
     id="defs5833" />
  <metadata
     id="metadata5836">
    <rdf:RDF>
      <cc:Work
         rdf:about="">
        <dc:format>image/svg+xml</dc:format>
        <dc:type
           rdf:resource="http://purl.org/dc/dcmitype/StillImage" />
        <dc:title></dc:title>
      </cc:Work>
    </rdf:RDF>
  </metadata>
  <g
     transform="translate(0,-282)"
     id="layer1">
    <g
       transform="matrix(0.35277777,0,0,-0.35277777,6.6415055,287.33813)"
       id="g362">
      <path
         id="path364"
         style="fill:#181818;fill-opacity:1;fill-rule:nonzero;stroke:none"
         d="M 0,0 C 0,1.366 1.107,2.474 2.474,2.474 3.84,2.474 4.947,1.366 4.947,0 4.947,-1.365 3.84,-2.473 2.474,-2.473 1.107,-2.473 0,-1.365 0,0 m 14.383,10.04 c -0.737,0 -1.335,0.598 -1.335,1.335 0,0.738 0.598,1.336 1.335,1.336 0.737,0 1.335,-0.598 1.335,-1.336 0,-0.737 -0.598,-1.335 -1.335,-1.335 m 0,-19.386 c -0.737,0 -1.335,0.599 -1.335,1.336 0,0.738 0.598,1.335 1.335,1.335 0.737,0 1.335,-0.597 1.335,-1.335 0,-0.737 -0.598,-1.336 -1.335,-1.336 m 0,-16.02 c -0.737,0 -1.335,0.597 -1.335,1.335 0,0.737 0.598,1.335 1.335,1.335 0.737,0 1.335,-0.598 1.335,-1.335 0,-0.738 -0.598,-1.335 -1.335,-1.335 m -9.666,8.945 h 8.331 v -4.353 H 4.717 Z m -3.354,1.134 c -0.623,-1.175 -2.007,-1.488 -3.075,-0.696 l -0.137,0.101 c -1.068,0.792 -1.172,2.207 -0.229,3.146 l 8.23,8.568 c 0.943,0.939 1.636,0.425 1.013,-0.749 l -3.676,-6.57 z m 0.576,-7.358 c 0,-0.32 -0.261,-0.582 -0.581,-0.582 h -7.85 c -0.32,0 -0.749,0.202 -0.954,0.447 l -0.708,0.844 c -0.205,0.247 -0.373,0.708 -0.373,1.029 v 5.958 1.163 1.102 c 0,0.32 0.261,0.581 0.581,0.581 h 2.229 c 0.321,0 0.597,-0.26 0.616,-0.58 0,0 0.171,-2.896 1.807,-4.465 1.636,-1.571 4.658,-1.119 4.658,-1.119 0.317,0.047 0.575,-0.175 0.575,-0.496 z m -11.588,-2.721 c -0.738,0 -1.334,0.597 -1.334,1.335 0,0.737 0.596,1.335 1.334,1.335 0.738,0 1.336,-0.598 1.336,-1.335 0,-0.738 -0.598,-1.335 -1.336,-1.335 m 0,18.691 c 0.738,0 1.336,-0.597 1.336,-1.335 0,-0.737 -0.598,-1.336 -1.336,-1.336 -0.738,0 -1.334,0.599 -1.334,1.336 0,0.738 0.596,1.335 1.334,1.335 m 0,19.386 c 0.738,0 1.336,-0.598 1.336,-1.336 0,-0.737 -0.598,-1.335 -1.336,-1.335 -0.738,0 -1.334,0.598 -1.334,1.335 0,0.738 0.596,1.336 1.334,1.336 M 2.474,11.535 c 6.371,0 11.535,-5.164 11.535,-11.535 0,-5.577 -3.959,-10.23 -9.221,-11.302 l 3.299,5.896 c 0.845,1.593 -0.035,2.357 -0.22,2.495 -0.138,0.101 -0.431,0.272 -0.852,0.272 -0.536,0 -1.077,-0.27 -1.615,-0.805 l -7.042,-7.331 c -4.337,1.657 -7.42,5.855 -7.42,10.775 0,6.371 5.165,11.535 11.536,11.535 m 13.778,3.204 h -27.556 l -1.442,-1.441 v -38.771 l 1.442,-1.442 h 27.556 l 1.441,1.442 v 38.771 z" />
    </g>
  </g>
</svg>
