<?xml version="1.0" encoding="UTF-8" standalone="no"?>
<svg
   xmlns:dc="http://purl.org/dc/elements/1.1/"
   xmlns:cc="http://creativecommons.org/ns#"
   xmlns:rdf="http://www.w3.org/1999/02/22-rdf-syntax-ns#"
   xmlns:svg="http://www.w3.org/2000/svg"
   xmlns="http://www.w3.org/2000/svg"
   id="svg6408"
   version="1.1"
   viewBox="0 0 15 15"
   height="15mm"
   width="15mm">
  <defs
     id="defs6402" />
  <metadata
     id="metadata6405">
    <rdf:RDF>
      <cc:Work
         rdf:about="">
        <dc:format>image/svg+xml</dc:format>
        <dc:type
           rdf:resource="http://purl.org/dc/dcmitype/StillImage" />
        <dc:title></dc:title>
      </cc:Work>
    </rdf:RDF>
  </metadata>
  <g
     transform="translate(0,-282)"
     id="layer1">
    <g
       transform="matrix(0.33273433,0,0,-0.33273433,8.2292686,294.74829)"
       id="g282">
      <path
         id="path284"
         style="fill:#181818;fill-opacity:1;fill-rule:nonzero;stroke:none"
         d="M 0,0 C 0.587,0.327 1.189,0.623 1.81,0.883 2.625,1.225 3.466,1.479 4.292,1.788 4.737,1.955 5.188,2.137 5.651,2.271 5.583,2.735 5.509,3.212 5.426,3.701 5.081,3.84 4.726,3.958 4.404,4.104 3.579,4.483 2.717,4.788 1.821,4.949 1.337,5.036 0.852,5.092 0.367,5.121 0.325,3.346 0.199,1.606 0,0 m 2.841,-5.063 c -1.152,0.464 -2.3,0.99 -3.528,1.201 -0.151,-0.615 -0.316,-1.179 -0.494,-1.684 -0.684,-1.703 4.58,-1.607 6.641,-0.662 -0.853,0.422 -1.728,0.785 -2.619,1.145 m 0.366,0.91 c 1.039,-0.413 2.058,-0.841 3.043,-1.358 0.007,0.03 0.013,0.058 0.014,0.087 C 6.3,-4.84 6.249,-2.239 5.787,1.285 5.307,1.136 4.839,0.937 4.361,0.772 3.582,0.506 2.802,0.249 2.046,-0.083 1.276,-0.422 0.538,-0.809 -0.172,-1.241 c -0.09,-0.58 -0.189,-1.136 -0.299,-1.664 1.278,-0.23 2.474,-0.768 3.678,-1.248 M 2.127,5.886 C 3.114,5.673 4.049,5.354 4.963,4.923 5.05,4.882 5.14,4.843 5.229,4.806 4.83,6.941 4.285,9.243 3.545,11.546 2.167,10.759 1.17,9.423 0.359,8.032 0.379,7.395 0.386,6.755 0.382,6.117 0.969,6.082 1.552,6.01 2.127,5.886 m 1.107,6.59 C 3,13.158 2.747,13.837 2.475,14.511 c -0.875,0.276 -1.87,0.342 -2.81,0.247 0.307,-1.571 0.509,-3.286 0.618,-5.049 0.798,1.129 1.746,2.117 2.951,2.767 m -1.239,3.17 c -0.617,1.395 -1.319,2.751 -2.121,4.031 -0.109,-0.185 -0.222,-0.367 -0.34,-0.546 -0.241,-0.364 -0.497,-0.716 -0.762,-1.062 0.265,-0.724 0.494,-1.517 0.69,-2.361 0.838,0.099 1.71,0.091 2.533,-0.062 m -3.654,3.476 c -0.405,0.875 -0.877,1.61 -1.418,2.164 -0.006,0.005 -0.011,0.01 -0.017,0.016 -2.066,-0.933 -10.171,-5.436 -8.363,-18.156 -1.833,2.125 -6.307,7.743 -1.414,13.033 4.001,4.326 8.079,5.134 9.612,5.283 -0.107,0.12 -0.18,0.238 -0.225,0.352 -2.833,0.076 -13.167,-0.183 -19.054,-7.519 2.017,13.617 14.347,9.389 18.999,7.76 -0.004,0.066 0.003,0.129 0.018,0.188 -2.788,1.643 -11.444,6.299 -19.262,5.801 10.534,7.438 16.897,-1.335 19.568,-5.419 0.079,0.043 0.169,0.07 0.267,0.081 -2.064,2.702 -3.313,9.603 2.244,13.045 6.337,3.926 11.813,1.598 11.813,1.598 0,0 -13.33,-3.092 -13.41,-14.812 0.04,-0.025 0.079,-0.054 0.118,-0.084 0.547,3.027 3.059,8.613 9.759,8.693 7.453,0.088 9.547,-3.128 9.547,-3.128 0,0 -14.701,1.601 -19.13,-5.73 0.014,-0.016 0.028,-0.029 0.042,-0.045 4.171,1.741 15.211,6.55 19.905,-3.361 C 8.216,22.85 0.211,22.352 -1.872,22.128 -1.477,21.64 -1.1,21.132 -0.74,20.61 -0.843,20.417 -0.938,20.222 -1.039,20.055 -1.231,19.733 -1.44,19.424 -1.659,19.122" />
    </g>
  </g>
</svg>
