<?xml version="1.0" encoding="UTF-8" standalone="no"?>
<svg
   xmlns:dc="http://purl.org/dc/elements/1.1/"
   xmlns:cc="http://creativecommons.org/ns#"
   xmlns:rdf="http://www.w3.org/1999/02/22-rdf-syntax-ns#"
   xmlns:svg="http://www.w3.org/2000/svg"
   xmlns="http://www.w3.org/2000/svg"
   id="svg5268"
   version="1.1"
   viewBox="0 0 15 15"
   height="15mm"
   width="15mm">
  <defs
     id="defs5262" />
  <metadata
     id="metadata5265">
    <rdf:RDF>
      <cc:Work
         rdf:about="">
        <dc:format>image/svg+xml</dc:format>
        <dc:type
           rdf:resource="http://purl.org/dc/dcmitype/StillImage" />
        <dc:title></dc:title>
      </cc:Work>
    </rdf:RDF>
  </metadata>
  <g
     transform="translate(0,-282)"
     id="layer1">
    <g
       transform="matrix(0.39510764,0,0,-0.39510764,4.7889362,290.1206)"
       id="g88">
      <path
         id="path90"
         style="fill:#181818;fill-opacity:1;fill-rule:nonzero;stroke:none"
         d="M 0,0 C -0.059,0.092 -0.147,0.153 -0.252,0.174 L -0.297,0.181 H -0.32 c -0.207,0 -0.399,-0.176 -0.453,-0.416 l -0.076,-0.321 c -0.034,-0.152 -0.01,-0.304 0.064,-0.419 0.059,-0.09 0.148,-0.151 0.246,-0.169 0.024,-0.004 0.049,-0.006 0.073,-0.006 0.207,0 0.398,0.174 0.452,0.415 l 0.075,0.318 C 0.096,-0.267 0.074,-0.115 0,0 m -0.65,1.107 c 0.09,0 0.173,0.028 0.242,0.082 0.08,0.065 0.128,0.159 0.135,0.265 0.009,0.14 -0.049,0.286 -0.161,0.403 l -0.23,0.247 c -0.115,0.123 -0.272,0.197 -0.418,0.197 -0.09,0 -0.174,-0.028 -0.24,-0.08 C -1.402,2.158 -1.451,2.064 -1.46,1.958 -1.471,1.819 -1.412,1.671 -1.3,1.551 L -1.068,1.304 C -0.952,1.182 -0.796,1.107 -0.65,1.107 m -0.62,-3.039 c -0.071,0.11 -0.199,0.173 -0.349,0.173 -0.105,0 -0.218,-0.031 -0.317,-0.086 l -0.306,-0.171 c -0.146,-0.082 -0.248,-0.207 -0.281,-0.341 -0.025,-0.101 -0.009,-0.202 0.046,-0.288 0.072,-0.108 0.199,-0.169 0.348,-0.169 0.105,0 0.218,0.031 0.317,0.086 l 0.303,0.168 c 0.148,0.082 0.252,0.206 0.285,0.343 0.026,0.102 0.009,0.203 -0.046,0.285 m -1.232,0.813 c 0.703,0.571 0.769,1.557 0.145,2.201 -0.622,0.646 -1.699,0.704 -2.402,0.133 -0.703,-0.57 -0.768,-1.557 -0.145,-2.203 0.623,-0.644 1.699,-0.703 2.402,-0.131 m -1.32,-1.714 c 10e-4,0.095 -0.037,0.187 -0.108,0.259 -0.097,0.099 -0.252,0.158 -0.42,0.159 l -0.365,0.007 c -0.298,0 -0.526,-0.175 -0.531,-0.406 -0.002,-0.133 0.072,-0.254 0.201,-0.332 0.092,-0.055 0.208,-0.086 0.327,-0.087 l 0.366,-0.006 c 0.297,0 0.525,0.175 0.53,0.406 m -1.757,5.34 c 0.281,0 0.497,0.159 0.513,0.377 C -5.06,2.979 -5.093,3.072 -5.158,3.148 -5.25,3.254 -5.401,3.32 -5.57,3.331 l -0.356,0.023 c -0.015,0 -0.03,10e-4 -0.046,10e-4 -0.281,0 -0.497,-0.158 -0.514,-0.378 C -6.493,2.883 -6.46,2.788 -6.393,2.713 -6.301,2.607 -6.15,2.541 -5.981,2.531 L -5.628,2.509 C -5.611,2.508 -5.596,2.507 -5.579,2.507 M -6.645,-2.68 c 0.008,0.095 -0.023,0.19 -0.087,0.267 -0.091,0.106 -0.24,0.177 -0.409,0.189 l -0.353,0.029 c -0.022,0.002 -0.042,0.003 -0.063,0.003 -0.276,0 -0.484,-0.15 -0.506,-0.367 -0.009,-0.095 0.022,-0.19 0.086,-0.267 0.091,-0.108 0.24,-0.176 0.41,-0.19 l 0.353,-0.027 c 0.021,-0.003 0.041,-0.004 0.062,-0.004 0.276,0 0.485,0.151 0.507,0.367 m -1.724,5.363 c 0.282,0 0.498,0.158 0.515,0.378 0.017,0.232 -0.2,0.425 -0.506,0.447 l -0.353,0.02 C -8.729,3.529 -8.744,3.53 -8.76,3.53 -9.041,3.53 -9.257,3.371 -9.273,3.153 -9.281,3.06 -9.248,2.965 -9.183,2.889 -9.09,2.783 -8.939,2.717 -8.769,2.706 l 0.354,-0.022 c 0.016,-0.001 0.031,-0.001 0.046,-0.001 m -0.907,-4.82 c -0.035,0.136 -0.14,0.26 -0.288,0.34 l -0.305,0.166 c -0.1,0.055 -0.208,0.083 -0.312,0.083 -0.152,0 -0.281,-0.063 -0.353,-0.174 -0.055,-0.083 -0.07,-0.185 -0.044,-0.287 0.035,-0.136 0.14,-0.26 0.289,-0.34 l 0.305,-0.165 c 0.1,-0.055 0.209,-0.084 0.313,-0.084 0.152,0 0.28,0.065 0.351,0.173 0.054,0.084 0.07,0.187 0.044,0.288 m 5.578,4.94 c -0.007,-0.094 0.024,-0.188 0.091,-0.264 0.09,-0.105 0.241,-0.173 0.413,-0.185 l 0.356,-0.022 c 0.014,-10e-4 0.027,-10e-4 0.042,-10e-4 0.284,0 0.501,0.159 0.516,0.377 0.008,0.095 -0.025,0.188 -0.091,0.265 -0.093,0.105 -0.243,0.173 -0.412,0.182 L -3.141,3.179 -3.182,3.18 c -0.284,0 -0.502,-0.159 -0.516,-0.377 M 0.717,-0.179 C 0.571,-1.266 0.09,-2.094 -0.968,-2.841 c -1.161,-0.818 -3.121,-0.814 -4.953,-0.684 -1.284,0.09 -2.543,0.23 -3.815,0.396 -0.919,0.119 -1.301,0.644 -1.313,1.419 0.042,1.449 0.053,2.898 0.032,4.345 0,0.724 0.041,1.447 0.041,2.17 0,0.009 0,0.021 0.003,0.031 0.025,-0.154 0.106,-0.294 0.244,-0.423 0.334,-0.314 1.157,-0.334 1.611,-0.373 0.816,-0.067 1.862,-0.151 2.684,-0.2 1.898,-0.106 3.918,-0.009 5.492,-0.973 1.137,-0.695 1.808,-1.926 1.659,-3.046 m 22.461,12.956 c 10e-4,0.254 -0.246,0.447 -0.578,0.449 h -0.692 c -0.328,0 -0.575,-0.193 -0.575,-0.445 -10e-4,-0.102 0.041,-0.201 0.118,-0.279 0.108,-0.107 0.276,-0.169 0.459,-0.169 l 0.69,-10e-4 c 0.33,0 0.578,0.191 0.578,0.445 m -0.922,-25.683 c 0.002,0.101 -0.039,0.2 -0.115,0.278 -0.107,0.108 -0.273,0.17 -0.456,0.17 l -0.675,10e-4 c -0.326,0 -0.574,-0.19 -0.576,-0.438 -0.002,-0.102 0.038,-0.202 0.115,-0.279 0.105,-0.108 0.271,-0.171 0.457,-0.171 h 0.675 c 0.325,0 0.572,0.19 0.575,0.439 m -2.411,25.689 c 0,0.254 -0.249,0.447 -0.579,0.447 h -0.69 C 18.247,13.23 18,13.038 18,12.784 c 0,-0.255 0.248,-0.446 0.577,-0.446 l 0.691,-10e-4 c 0.329,0 0.577,0.191 0.577,0.446 m -0.866,-25.685 c 0.001,0.101 -0.04,0.2 -0.116,0.277 -0.106,0.107 -0.272,0.17 -0.456,0.17 h -0.676 c -0.324,0 -0.571,-0.19 -0.575,-0.44 -0.002,-0.101 0.039,-0.201 0.116,-0.277 0.106,-0.107 0.271,-0.168 0.455,-0.168 h 0.674 c 0.327,0 0.575,0.188 0.578,0.438 m -2.468,25.689 c 0,0.253 -0.248,0.445 -0.577,0.447 h -0.691 c -0.329,0 -0.578,-0.191 -0.578,-0.446 0,-0.254 0.249,-0.446 0.578,-0.446 l 0.69,-0.001 c 0.33,0 0.578,0.192 0.578,0.446 m -0.81,-25.689 c 0.002,0.102 -0.039,0.202 -0.115,0.28 -0.106,0.107 -0.272,0.169 -0.456,0.169 h -0.675 c -0.324,0 -0.572,-0.188 -0.577,-0.436 -0.002,-0.1 0.038,-0.2 0.113,-0.278 0.106,-0.108 0.272,-0.171 0.457,-0.172 h 0.675 c 0.325,0 0.574,0.189 0.578,0.437 m -2.523,25.694 c 0,0.255 -0.249,0.446 -0.578,0.446 l -0.689,0.001 c -0.331,0 -0.579,-0.191 -0.579,-0.446 0,-0.254 0.248,-0.445 0.577,-0.447 l 0.69,-10e-4 c 0.329,0 0.579,0.192 0.579,0.447 M 12.424,-12.9 c 0.002,0.102 -0.038,0.202 -0.114,0.279 -0.105,0.109 -0.272,0.172 -0.456,0.172 h -0.675 c -0.324,0 -0.573,-0.188 -0.578,-0.436 -0.003,-0.102 0.038,-0.201 0.113,-0.279 0.104,-0.108 0.27,-0.17 0.456,-0.172 h 0.675 c 0.325,0 0.574,0.189 0.579,0.436 m -2.58,25.697 c 0,0.254 -0.248,0.445 -0.577,0.445 l -0.69,10e-4 c -0.33,0 -0.579,-0.191 -0.579,-0.445 0,-0.255 0.248,-0.446 0.577,-0.446 l 0.69,-0.002 c 0.331,0 0.579,0.192 0.579,0.447 M 9.146,-12.897 c 0.002,0.102 -0.039,0.202 -0.114,0.279 -0.105,0.109 -0.271,0.171 -0.456,0.171 H 7.902 c -0.323,0 -0.572,-0.187 -0.58,-0.438 -0.002,-0.101 0.038,-0.199 0.114,-0.277 0.104,-0.108 0.27,-0.17 0.456,-0.171 h 0.674 c 0.324,0 0.573,0.187 0.58,0.436 M 6.511,12.801 c 0,0.254 -0.248,0.446 -0.578,0.446 l -0.689,10e-4 c -0.33,0 -0.578,-0.191 -0.579,-0.445 0,-0.254 0.248,-0.446 0.578,-0.449 h 0.692 c 0.326,0 0.574,0.191 0.576,0.447 M 5.869,-12.894 c 0.002,0.102 -0.038,0.202 -0.113,0.279 -0.106,0.108 -0.273,0.17 -0.455,0.17 l -0.676,10e-4 c -0.323,0 -0.571,-0.187 -0.58,-0.434 -0.004,-0.101 0.036,-0.201 0.111,-0.28 0.106,-0.109 0.272,-0.171 0.457,-0.171 l 0.676,-10e-4 c 0.32,0 0.569,0.185 0.58,0.436 M 3.178,12.805 c 0,0.255 -0.249,0.447 -0.578,0.447 l -0.689,10e-4 c -0.33,0 -0.579,-0.191 -0.579,-0.446 0,-0.254 0.248,-0.447 0.578,-0.449 H 2.6 c 0.328,0 0.577,0.192 0.578,0.447 M 2.591,-12.894 c 0.003,0.104 -0.037,0.204 -0.113,0.283 -0.105,0.108 -0.271,0.17 -0.456,0.17 H 1.349 c -0.324,0 -0.574,-0.187 -0.581,-0.433 -0.003,-0.103 0.037,-0.202 0.112,-0.28 0.104,-0.11 0.269,-0.172 0.455,-0.173 h 0.676 c 0.323,0 0.573,0.187 0.58,0.433 m -3.278,0.002 c 0.004,0.103 -0.036,0.204 -0.112,0.283 -0.104,0.109 -0.27,0.171 -0.456,0.171 h -0.674 c -0.323,0 -0.573,-0.186 -0.581,-0.432 -0.004,-0.104 0.036,-0.204 0.113,-0.283 0.104,-0.109 0.27,-0.171 0.454,-0.171 h 0.675 c 0.323,0 0.572,0.185 0.581,0.432 m -3.278,0.002 c 0.005,0.103 -0.034,0.203 -0.109,0.283 -0.105,0.108 -0.271,0.17 -0.456,0.17 h -0.678 c -0.318,0 -0.567,-0.184 -0.579,-0.431 -0.005,-0.103 0.035,-0.202 0.11,-0.281 0.105,-0.109 0.271,-0.171 0.454,-0.171 l 0.678,-10e-4 c 0.32,0 0.57,0.186 0.58,0.431 m -3.465,1.279 c -0.123,0.171 -0.312,0.278 -0.492,0.278 -0.064,0 -0.126,-0.014 -0.179,-0.04 -0.105,-0.049 -0.179,-0.14 -0.21,-0.254 -0.038,-0.145 0,-0.312 0.116,-0.471 l 0.273,-0.333 0.02,-0.02 c 0.122,-0.119 0.275,-0.188 0.421,-0.188 0.116,0 0.22,0.043 0.293,0.12 0.123,0.128 0.178,0.326 -0.242,0.908 m -1.159,1.657 c 0.082,-0.082 0.188,-0.128 0.297,-0.128 0.257,0 0.458,0.24 0.46,0.547 v 0.655 c 0,0.163 -0.059,0.317 -0.161,0.419 -0.082,0.083 -0.189,0.128 -0.298,0.128 -0.258,0 -0.459,-0.24 -0.459,-0.547 l -10e-4,-0.653 c 0,-0.164 0.059,-0.318 0.162,-0.421 m -0.16,3.177 c -10e-4,-0.164 0.059,-0.318 0.161,-0.42 0.082,-0.083 0.188,-0.129 0.296,-0.129 h 0.003 c 0.257,0 0.459,0.24 0.459,0.547 v 0.654 c 0,0.308 -0.202,0.548 -0.459,0.548 -0.257,0 -0.458,-0.239 -0.46,-0.547 z m 8.593,19.585 c 0.001,0.102 -0.041,0.201 -0.118,0.278 -0.108,0.108 -0.275,0.17 -0.459,0.171 l -0.691,10e-4 c -0.329,0 -0.578,-0.193 -0.578,-0.446 0,-0.101 0.042,-0.201 0.119,-0.278 0.108,-0.108 0.275,-0.17 0.459,-0.17 l 0.69,-0.001 c 0.33,0 0.578,0.193 0.578,0.445 m -3.334,0.005 c 0.001,0.102 -0.041,0.201 -0.118,0.279 -0.108,0.107 -0.275,0.169 -0.459,0.169 h -0.691 c -0.329,0 -0.577,-0.192 -0.577,-0.446 0,-0.253 0.247,-0.446 0.577,-0.447 l 0.692,-10e-4 c 0.328,0 0.576,0.193 0.576,0.446 M -6.842,12.67 c -0.055,0.175 -0.225,0.283 -0.443,0.283 -0.08,0 -0.165,-0.015 -0.246,-0.043 l -0.013,-0.006 -0.44,-0.212 c -0.163,-0.095 -0.27,-0.237 -0.293,-0.387 -0.019,-0.115 0.014,-0.229 0.089,-0.312 0.083,-0.093 0.208,-0.143 0.353,-0.143 0.122,0 0.252,0.037 0.367,0.103 0.117,0.069 0.226,0.107 0.231,0.109 0.302,0.11 0.471,0.373 0.395,0.608 m -1.417,-2.218 c 0.009,0.304 -0.179,0.557 -0.432,0.577 l -0.032,10e-4 c -0.252,0 -0.45,-0.226 -0.461,-0.523 L -9.202,9.819 C -9.2,9.512 -8.996,9.27 -8.736,9.269 h 0.001 c 0.11,0 0.216,0.045 0.299,0.128 0.104,0.105 0.163,0.26 0.161,0.412 z M -8.273,7.396 c 0,0.31 -0.204,0.552 -0.463,0.552 -0.26,0 -0.463,-0.242 -0.463,-0.552 V 6.739 c 0,-0.309 0.203,-0.552 0.463,-0.552 0.258,0 0.462,0.242 0.463,0.552 z m 32.762,8.8 -0.033,-28.428 v -0.677 c -0.086,-1.186 -1.101,-1.664 -2.193,-1.698 l -30.218,0.034 c -1.466,0.11 -2.339,1.457 -2.348,2.425 v 0.664 0.011 l 0.004,7.434 c 0.138,-0.038 0.28,-0.068 0.432,-0.088 0.254,-0.033 0.499,-0.063 0.74,-0.094 l 0.888,-0.103 c 0.789,-0.087 1.525,-0.155 2.247,-0.205 0.642,-0.047 1.17,-0.068 1.659,-0.068 1.789,0 3.043,0.297 3.945,0.933 1.245,0.88 1.913,1.944 2.103,3.352 C 1.916,1.201 1.06,2.823 -0.416,3.725 -1.961,4.671 -3.744,4.739 -5.47,4.805 -5.773,4.816 -6.077,4.828 -6.375,4.845 -6.939,4.878 -7.621,4.93 -8.234,4.978 L -9.122,5.05 -9.225,5.059 c -0.118,0.007 -0.629,0.08 -1.069,0.149 l 0.003,6.181 c 0,0.955 0.183,1.991 1.231,2.564 0.485,0.269 1.155,0.436 2.08,0.449 l 30.591,-0.051 -2.59,0.003 c 0.975,0.079 1.833,0.324 2.454,0.674 0.433,0.243 0.861,0.669 1.014,1.168 M -6.98,15.08 c -0.956,-0.016 -1.615,-0.22 -2.08,-0.526 v 0.898 c 0,1.395 0.376,2.97 3.199,3.013 l 28.57,-1.376 -0.002,-0.005 c 0.38,-0.049 0.852,-0.275 0.892,-0.666 0.002,-0.018 0.007,-0.034 0.007,-0.053 0,-0.636 -1.343,-1.278 -2.338,-1.335 z" />
    </g>
  </g>
</svg>
